<?xml version="1.0" encoding="utf-8"?>
<!-- Generator: Adobe Illustrator 24.0.1, SVG Export Plug-In . SVG Version: 6.00 Build 0)  -->
<svg version="1.1" id="Layer_1" xmlns="http://www.w3.org/2000/svg" xmlns:xlink="http://www.w3.org/1999/xlink" x="0px" y="0px"
	 viewBox="0 0 524.27 182.45" style="enable-background:new 0 0 524.27 182.45;" xml:space="preserve">
<style type="text/css">
	.st0{fill:url(#SVGID_1_);}
	.st1{fill:none;}
	.st2{fill:url(#SVGID_2_);}
	.st3{fill:url(#SVGID_3_);}
	.st4{fill:url(#SVGID_4_);}
	.st5{fill:#545454;}
	.st6{fill:#8FC73F;}
</style>
<g>
	<linearGradient id="SVGID_1_" gradientUnits="userSpaceOnUse" x1="106.2765" y1="46.3366" x2="17.113" y2="135.5001">
		<stop  offset="2.273479e-03" style="stop-color:#A9DDE3"/>
		<stop  offset="0.3497" style="stop-color:#98D7DE"/>
		<stop  offset="0.9858" style="stop-color:#6EC8D3"/>
	</linearGradient>
	<path class="st0" d="M113.04,75.96L113.04,75.96l-11.75-31.83c-3.31-8.95-12.13-14.64-21.65-13.95h0
		c-7.92,0.57-14.87,5.48-18.07,12.75L19.71,138.1c9.87,1.79,21.26,1.05,33.11-2.16l28.17-67.47l11.39,34.93
		c-5.68,7.14-10.29,12.8-10.29,12.8c3.77-1.93,7.82-4.92,11.76-8.31l0,0c8.94-7.17,16.46-15.17,22.33-23.46L113.04,75.96z"/>
	<path class="st1" d="M52.82,135.94c12.47-3.38,25.45-9.49,37.7-18.26c1.92-1.38,3.79-2.8,5.6-4.25L80.99,68.47L52.82,135.94z"/>
	
		<linearGradient id="SVGID_2_" gradientUnits="userSpaceOnUse" x1="151.1764" y1="32.9038" x2="21.0839" y2="32.9038" gradientTransform="matrix(0.9992 -0.0398 0.0398 0.9992 -5.9107 66.7438)">
		<stop  offset="3.885582e-03" style="stop-color:#67C188"/>
		<stop  offset="8.073260e-03" style="stop-color:#69C185"/>
		<stop  offset="0.0376" style="stop-color:#76C370"/>
		<stop  offset="0.071" style="stop-color:#80C45D"/>
		<stop  offset="0.1092" style="stop-color:#87C54F"/>
		<stop  offset="0.155" style="stop-color:#8CC645"/>
		<stop  offset="0.2164" style="stop-color:#8EC740"/>
		<stop  offset="0.3575" style="stop-color:#8FC73F"/>
		<stop  offset="0.9994" style="stop-color:#8FC73F"/>
	</linearGradient>
	<path class="st2" d="M138.66,40.57c-2.7-3.76-6.11-6.85-10.09-9.27c8.92,15.84,4.44,38.14-10.12,58.67
		c-5.87,8.29-13.39,16.28-22.33,23.46c-1.81,1.45-3.68,2.87-5.6,4.25c-12.24,8.78-25.22,14.89-37.7,18.26
		c-11.85,3.21-23.24,3.95-33.11,2.16l0,0c-4.99,11.34,3.94,23.89,16.3,22.92c2.18-0.17,4.41-0.43,6.66-0.78
		c17.31-2.68,36.49-10.57,54.4-23.41c1.89-1.35,3.73-2.74,5.52-4.15c9.04-7.13,16.83-14.96,23.18-23.06
		C145.07,85.03,151.12,57.95,138.66,40.57z"/>
	
		<linearGradient id="SVGID_3_" gradientUnits="userSpaceOnUse" x1="65.5364" y1="35.1115" x2="25.548" y2="75.0998" gradientTransform="matrix(0.9992 -0.0398 0.0398 0.9992 -5.9107 66.7438)">
		<stop  offset="1.281415e-03" style="stop-color:#A9DDE3;stop-opacity:0"/>
		<stop  offset="0.1583" style="stop-color:#92BFCA;stop-opacity:0.0629"/>
		<stop  offset="0.4833" style="stop-color:#638A9B;stop-opacity:0.193"/>
		<stop  offset="0.9449" style="stop-color:#1B4B63;stop-opacity:0.3779"/>
		<stop  offset="1" style="stop-color:#0E455E;stop-opacity:0.4"/>
	</linearGradient>
	<path class="st3" d="M66.15,104.01l-13.33,31.93c0,0-18.31,5.71-33.11,2.16l18.54-42.17L66.15,104.01z"/>
	<linearGradient id="SVGID_4_" gradientUnits="userSpaceOnUse" x1="105.1305" y1="126.6093" x2="139.1556" y2="126.6093">
		<stop  offset="0" style="stop-color:#A9DDE2"/>
		<stop  offset="0.9993" style="stop-color:#61C2CF"/>
	</linearGradient>
	<path class="st4" d="M130.32,119.82c4.67-9.24,8.83-22.93,8.83-22.93c-6.17,12.88-17.53,25.3-18.99,26.87
		c-4.52,4.75-9.55,9.33-15.04,13.66l2.62,8.6c2.2,6.54,8.54,10.76,15.42,10.26h0c10.06-0.73,16.6-10.92,13.08-20.37L130.32,119.82z"
		/>
</g>
<g>
	<circle class="st5" cx="335.89" cy="91.39" r="6.72"/>
	<g>
		<path class="st6" d="M212.92,82.55l-0.02,28.41l-10.17-0.01l0-5.9c-2.59,4.17-7.59,6.53-14.49,6.52
			c-10.52-0.01-17.15-6.09-17.15-14.53c0.01-8.08,5.18-14.43,19.15-14.42l11.9,0.01l0-0.73c0.01-6.63-3.79-10.53-11.46-10.54
			c-5.17,0-10.52,1.81-13.97,4.8l-4.22-8.26c4.92-3.99,12.08-5.98,19.49-5.97C205.26,61.95,212.93,68.58,212.92,82.55z M202.13,95.8
			l0-5.63l-11.12-0.01c-7.33-0.01-9.31,2.9-9.32,6.44c0,4.08,3.27,6.72,8.79,6.72C195.74,103.32,200.31,100.79,202.13,95.8z"/>
		<path class="st5" d="M223.35,86.74c0.01-14.52,10.37-24.77,24.94-24.76c8.97,0.01,16.12,3.91,19.65,11.27l-8.28,5.08
			c-2.76-4.63-6.89-6.72-11.46-6.73c-7.93-0.01-13.97,5.8-13.98,15.15c-0.01,9.44,6.02,15.16,13.96,15.17
			c4.57,0,8.71-2.08,11.47-6.71l8.27,5.09c-3.54,7.26-10.7,11.34-19.67,11.33C233.67,111.61,223.33,101.26,223.35,86.74z"/>
		<path class="st5" d="M272.75,86.78c0.01-14.52,10.37-24.77,24.94-24.76c8.97,0.01,16.12,3.92,19.65,11.27l-8.28,5.08
			c-2.76-4.63-6.89-6.72-11.46-6.72c-7.93-0.01-13.97,5.8-13.98,15.15c-0.01,9.44,6.02,15.16,13.96,15.17
			c4.57,0,8.71-2.08,11.47-6.71l8.27,5.09c-3.54,7.26-10.7,11.34-19.67,11.33C283.08,111.65,272.74,101.3,272.75,86.78z"/>
		<path class="st6" d="M400.96,83.34l-0.02,27.77l-10.78-0.01l0.02-26.32c0.01-8.62-4.04-12.8-10.94-12.81
			c-7.67-0.01-12.85,4.89-12.86,14.6l-0.02,24.5l-10.78-0.01l0.04-48.46l10.26,0.01l-0.01,6.26c3.54-4.44,9.14-6.8,15.87-6.79
			C392.79,62.09,400.98,68.72,400.96,83.34z"/>
		<path class="st5" d="M458.21,90.55l-36.13-0.03c1.29,7.08,6.89,11.62,14.91,11.63c5.17,0,9.23-1.72,12.51-5.25l5.77,6.99
			c-4.14,5.17-10.61,7.89-18.54,7.88c-15.43-0.01-25.43-10.46-25.42-24.89c0.01-14.43,10.11-24.77,23.82-24.76
			c13.45,0.01,23.27,9.91,23.26,25.07C458.38,88.1,458.3,89.46,458.21,90.55z M422,82.99l26.12,0.02
			c-0.86-6.99-5.94-11.8-13.01-11.81C428.13,71.2,423.04,75.91,422,82.99z"/>
		<path class="st5" d="M496.39,108.55c-2.59,2.18-6.47,3.26-10.35,3.26c-10.09-0.01-15.86-5.64-15.85-16.35l0.02-23.32l-7.59-0.01
			l0.01-9.08l7.59,0.01l0.01-11.07L481,52l-0.01,11.07l12.33,0.01l-0.01,9.08l-12.33-0.01l-0.02,23.05c0,4.72,2.24,7.26,6.37,7.27
			c2.24,0,4.4-0.63,6.04-1.99L496.39,108.55z"/>
	</g>
	<g>
		<path class="st5" d="M171.28,122.45c0.8-0.13,1.86-0.25,3.2-0.25c1.65,0,2.85,0.38,3.62,1.07c0.71,0.61,1.13,1.55,1.13,2.7
			c0,1.17-0.34,2.09-1,2.76c-0.88,0.94-2.32,1.42-3.94,1.42c-0.5,0-0.96-0.02-1.34-0.12v5.17h-1.67V122.45z M172.95,128.67
			c0.36,0.1,0.82,0.13,1.38,0.13c2.01,0,3.24-0.98,3.24-2.76c0-1.71-1.21-2.53-3.04-2.53c-0.73,0-1.28,0.06-1.57,0.13V128.67z"/>
		<path class="st5" d="M183.78,128.82c0-1.09-0.02-2.03-0.08-2.89h1.47l0.06,1.82h0.08c0.42-1.25,1.44-2.03,2.57-2.03
			c0.19,0,0.33,0.02,0.48,0.06v1.59c-0.17-0.04-0.34-0.06-0.57-0.06c-1.19,0-2.03,0.9-2.26,2.16c-0.04,0.23-0.08,0.5-0.08,0.79v4.94
			h-1.67V128.82z"/>
		<path class="st5" d="M199.77,130.49c0,3.43-2.37,4.92-4.62,4.92c-2.51,0-4.44-1.84-4.44-4.77c0-3.1,2.03-4.92,4.6-4.92
			C197.97,125.72,199.77,127.66,199.77,130.49z M192.42,130.59c0,2.03,1.17,3.56,2.81,3.56c1.61,0,2.81-1.51,2.81-3.6
			c0-1.57-0.79-3.56-2.78-3.56C193.28,126.99,192.42,128.82,192.42,130.59z"/>
		<path class="st5" d="M203.98,135.2v-7.99h-1.3v-1.28h1.3v-0.44c0-1.3,0.29-2.49,1.07-3.24c0.63-0.61,1.47-0.86,2.26-0.86
			c0.59,0,1.11,0.13,1.44,0.27l-0.23,1.3c-0.25-0.12-0.59-0.21-1.07-0.21c-1.44,0-1.8,1.26-1.8,2.68v0.5h2.24v1.28h-2.24v7.99
			H203.98z"/>
		<path class="st5" d="M212,130.87c0.04,2.28,1.49,3.22,3.18,3.22c1.21,0,1.93-0.21,2.57-0.48l0.29,1.21
			c-0.59,0.27-1.61,0.57-3.08,0.57c-2.85,0-4.56-1.88-4.56-4.67c0-2.8,1.65-5,4.35-5c3.03,0,3.83,2.66,3.83,4.37
			c0,0.34-0.04,0.61-0.06,0.79H212z M216.94,129.67c0.02-1.07-0.44-2.74-2.34-2.74c-1.7,0-2.45,1.57-2.58,2.74H216.94z"/>
		<path class="st5" d="M222.34,133.48c0.5,0.33,1.38,0.67,2.22,0.67c1.23,0,1.8-0.61,1.8-1.38c0-0.8-0.48-1.25-1.72-1.71
			c-1.67-0.59-2.45-1.51-2.45-2.62c0-1.49,1.21-2.72,3.2-2.72c0.94,0,1.76,0.27,2.28,0.58l-0.42,1.23c-0.36-0.23-1.03-0.54-1.9-0.54
			c-1,0-1.55,0.57-1.55,1.26c0,0.77,0.56,1.11,1.76,1.57c1.61,0.61,2.43,1.42,2.43,2.8c0,1.63-1.26,2.78-3.47,2.78
			c-1.01,0-1.95-0.25-2.6-0.63L222.34,133.48z"/>
		<path class="st5" d="M231.45,133.48c0.5,0.33,1.38,0.67,2.22,0.67c1.23,0,1.8-0.61,1.8-1.38c0-0.8-0.48-1.25-1.72-1.71
			c-1.67-0.59-2.45-1.51-2.45-2.62c0-1.49,1.21-2.72,3.2-2.72c0.94,0,1.76,0.27,2.28,0.58l-0.42,1.23c-0.36-0.23-1.03-0.54-1.9-0.54
			c-1,0-1.55,0.57-1.55,1.26c0,0.77,0.56,1.11,1.76,1.57c1.61,0.61,2.43,1.42,2.43,2.8c0,1.63-1.26,2.78-3.47,2.78
			c-1.01,0-1.95-0.25-2.6-0.63L231.45,133.48z"/>
		<path class="st5" d="M242.67,123.33c0.02,0.57-0.4,1.03-1.07,1.03c-0.59,0-1.01-0.46-1.01-1.03c0-0.59,0.44-1.05,1.05-1.05
			C242.27,122.27,242.67,122.73,242.67,123.33z M240.8,135.2v-9.27h1.69v9.27H240.8z"/>
		<path class="st5" d="M255.2,130.49c0,3.43-2.37,4.92-4.62,4.92c-2.51,0-4.44-1.84-4.44-4.77c0-3.1,2.03-4.92,4.6-4.92
			C253.39,125.72,255.2,127.66,255.2,130.49z M247.84,130.59c0,2.03,1.17,3.56,2.81,3.56c1.61,0,2.81-1.51,2.81-3.6
			c0-1.57-0.79-3.56-2.78-3.56C248.7,126.99,247.84,128.82,247.84,130.59z"/>
		<path class="st5" d="M259.23,128.44c0-0.96-0.02-1.74-0.08-2.51h1.49l0.1,1.53h0.04c0.46-0.88,1.53-1.74,3.06-1.74
			c1.28,0,3.27,0.77,3.27,3.95v5.53h-1.69v-5.34c0-1.49-0.56-2.74-2.15-2.74c-1.11,0-1.97,0.79-2.26,1.72
			c-0.08,0.21-0.12,0.5-0.12,0.79v5.57h-1.69V128.44z"/>
		<path class="st5" d="M276.52,135.2l-0.13-1.17h-0.06c-0.52,0.73-1.51,1.38-2.83,1.38c-1.88,0-2.83-1.32-2.83-2.66
			c0-2.24,1.99-3.47,5.57-3.45v-0.19c0-0.77-0.21-2.14-2.11-2.14c-0.86,0-1.76,0.27-2.41,0.69l-0.38-1.11
			c0.77-0.5,1.88-0.82,3.04-0.82c2.83,0,3.52,1.93,3.52,3.79v3.47c0,0.8,0.04,1.59,0.15,2.22H276.52z M276.27,130.47
			c-1.84-0.04-3.93,0.29-3.93,2.09c0,1.09,0.73,1.61,1.59,1.61c1.21,0,1.97-0.77,2.24-1.55c0.06-0.17,0.1-0.36,0.1-0.54V130.47z"/>
		<path class="st5" d="M283.3,121.6h1.69v13.6h-1.69V121.6z"/>
		<path class="st5" d="M297.08,131.14l-1.34,4.06h-1.72l4.39-12.91h2.01l4.4,12.91h-1.78l-1.38-4.06H297.08z M301.32,129.84
			l-1.26-3.71c-0.29-0.84-0.48-1.61-0.67-2.36h-0.04c-0.19,0.77-0.4,1.55-0.65,2.34l-1.26,3.73H301.32z"/>
		<path class="st5" d="M315.71,134.86c-0.44,0.23-1.42,0.54-2.66,0.54c-2.8,0-4.62-1.9-4.62-4.73c0-2.85,1.95-4.92,4.98-4.92
			c1,0,1.88,0.25,2.34,0.48l-0.38,1.3c-0.4-0.23-1.03-0.44-1.95-0.44c-2.13,0-3.27,1.57-3.27,3.5c0,2.14,1.38,3.47,3.22,3.47
			c0.96,0,1.59-0.25,2.07-0.46L315.71,134.86z"/>
		<path class="st5" d="M326.85,134.86c-0.44,0.23-1.42,0.54-2.66,0.54c-2.8,0-4.62-1.9-4.62-4.73c0-2.85,1.95-4.92,4.98-4.92
			c1,0,1.88,0.25,2.34,0.48l-0.38,1.3c-0.4-0.23-1.03-0.44-1.95-0.44c-2.13,0-3.27,1.57-3.27,3.5c0,2.14,1.38,3.47,3.22,3.47
			c0.96,0,1.59-0.25,2.07-0.46L326.85,134.86z"/>
		<path class="st5" d="M339.01,130.49c0,3.43-2.37,4.92-4.62,4.92c-2.51,0-4.44-1.84-4.44-4.77c0-3.1,2.03-4.92,4.6-4.92
			C337.21,125.72,339.01,127.66,339.01,130.49z M331.66,130.59c0,2.03,1.17,3.56,2.81,3.56c1.61,0,2.81-1.51,2.81-3.6
			c0-1.57-0.79-3.56-2.78-3.56C332.52,126.99,331.66,128.82,331.66,130.59z"/>
		<path class="st5" d="M350.81,132.67c0,0.96,0.02,1.8,0.08,2.53h-1.49l-0.1-1.51h-0.04c-0.44,0.75-1.42,1.72-3.06,1.72
			c-1.46,0-3.2-0.8-3.2-4.06v-5.42h1.69v5.13c0,1.76,0.54,2.95,2.07,2.95c1.13,0,1.92-0.79,2.22-1.53c0.1-0.25,0.15-0.55,0.15-0.86
			v-5.69h1.69V132.67z"/>
		<path class="st5" d="M355.51,128.44c0-0.96-0.02-1.74-0.08-2.51h1.49l0.1,1.53h0.04c0.46-0.88,1.53-1.74,3.06-1.74
			c1.28,0,3.27,0.77,3.27,3.95v5.53h-1.69v-5.34c0-1.49-0.56-2.74-2.15-2.74c-1.11,0-1.97,0.79-2.26,1.72
			c-0.08,0.21-0.12,0.5-0.12,0.79v5.57h-1.69V128.44z"/>
		<path class="st5" d="M370.01,123.27v2.66h2.41v1.28h-2.41v5c0,1.15,0.33,1.8,1.26,1.8c0.44,0,0.77-0.06,0.98-0.11l0.08,1.26
			c-0.33,0.13-0.84,0.23-1.49,0.23c-0.79,0-1.42-0.25-1.82-0.71c-0.48-0.5-0.65-1.32-0.65-2.41v-5.06h-1.44v-1.28h1.44v-2.22
			L370.01,123.27z"/>
		<path class="st5" d="M378.49,123.33c0.02,0.57-0.4,1.03-1.07,1.03c-0.59,0-1.01-0.46-1.01-1.03c0-0.59,0.44-1.05,1.05-1.05
			C378.09,122.27,378.49,122.73,378.49,123.33z M376.61,135.2v-9.27h1.69v9.27H376.61z"/>
		<path class="st5" d="M383.01,128.44c0-0.96-0.02-1.74-0.08-2.51h1.49l0.1,1.53h0.04c0.46-0.88,1.53-1.74,3.06-1.74
			c1.28,0,3.27,0.77,3.27,3.95v5.53h-1.69v-5.34c0-1.49-0.56-2.74-2.15-2.74c-1.11,0-1.97,0.79-2.26,1.72
			c-0.08,0.21-0.12,0.5-0.12,0.79v5.57h-1.69V128.44z"/>
		<path class="st5" d="M403.91,125.93c-0.04,0.67-0.08,1.42-0.08,2.55v5.38c0,2.13-0.42,3.43-1.32,4.23
			c-0.9,0.84-2.2,1.11-3.37,1.11c-1.11,0-2.34-0.27-3.08-0.77l0.42-1.28c0.61,0.38,1.57,0.73,2.72,0.73c1.72,0,2.99-0.9,2.99-3.24
			v-1.03h-0.04c-0.52,0.86-1.51,1.55-2.95,1.55c-2.3,0-3.94-1.95-3.94-4.52c0-3.14,2.05-4.92,4.17-4.92c1.61,0,2.49,0.84,2.89,1.61
			h0.04l0.08-1.4H403.91z M402.17,129.59c0-0.29-0.02-0.54-0.1-0.77c-0.31-0.98-1.13-1.78-2.36-1.78c-1.61,0-2.76,1.36-2.76,3.5
			c0,1.82,0.92,3.33,2.74,3.33c1.03,0,1.97-0.65,2.34-1.72c0.1-0.29,0.13-0.61,0.13-0.9V129.59z"/>
		<path class="st5" d="M412.82,133.17c0.75,0.46,1.84,0.84,2.99,0.84c1.7,0,2.7-0.9,2.7-2.2c0-1.21-0.69-1.9-2.43-2.57
			c-2.11-0.75-3.41-1.84-3.41-3.66c0-2.01,1.67-3.5,4.17-3.5c1.32,0,2.28,0.31,2.85,0.63l-0.46,1.36c-0.42-0.23-1.28-0.61-2.45-0.61
			c-1.76,0-2.43,1.05-2.43,1.93c0,1.21,0.78,1.8,2.57,2.49c2.18,0.84,3.29,1.9,3.29,3.79c0,1.99-1.47,3.71-4.52,3.71
			c-1.24,0-2.6-0.36-3.29-0.82L412.82,133.17z"/>
		<path class="st5" d="M425.78,130.87c0.04,2.28,1.49,3.22,3.18,3.22c1.21,0,1.93-0.21,2.57-0.48l0.29,1.21
			c-0.59,0.27-1.61,0.57-3.08,0.57c-2.85,0-4.56-1.88-4.56-4.67c0-2.8,1.65-5,4.35-5c3.03,0,3.83,2.66,3.83,4.37
			c0,0.34-0.04,0.61-0.06,0.79H425.78z M430.72,129.67c0.02-1.07-0.44-2.74-2.34-2.74c-1.7,0-2.45,1.57-2.58,2.74H430.72z"/>
		<path class="st5" d="M437.11,128.82c0-1.09-0.02-2.03-0.08-2.89h1.47l0.06,1.82h0.08c0.42-1.25,1.44-2.03,2.57-2.03
			c0.19,0,0.33,0.02,0.48,0.06v1.59c-0.17-0.04-0.34-0.06-0.57-0.06c-1.19,0-2.03,0.9-2.26,2.16c-0.04,0.23-0.08,0.5-0.08,0.79v4.94
			h-1.67V128.82z"/>
		<path class="st5" d="M447.56,125.93l1.82,5.21c0.31,0.84,0.56,1.61,0.75,2.37h0.06c0.21-0.77,0.48-1.53,0.79-2.37l1.8-5.21h1.76
			l-3.64,9.27h-1.61l-3.52-9.27H447.56z"/>
		<path class="st5" d="M460.68,123.33c0.02,0.57-0.4,1.03-1.07,1.03c-0.59,0-1.01-0.46-1.01-1.03c0-0.59,0.44-1.05,1.05-1.05
			C460.28,122.27,460.68,122.73,460.68,123.33z M458.8,135.2v-9.27h1.69v9.27H458.8z"/>
		<path class="st5" d="M472.95,134.86c-0.44,0.23-1.42,0.54-2.66,0.54c-2.8,0-4.62-1.9-4.62-4.73c0-2.85,1.95-4.92,4.98-4.92
			c1,0,1.88,0.25,2.34,0.48l-0.38,1.3c-0.4-0.23-1.03-0.44-1.95-0.44c-2.13,0-3.27,1.57-3.27,3.5c0,2.14,1.38,3.47,3.22,3.47
			c0.96,0,1.59-0.25,2.07-0.46L472.95,134.86z"/>
		<path class="st5" d="M478.81,130.87c0.04,2.28,1.49,3.22,3.18,3.22c1.21,0,1.93-0.21,2.57-0.48l0.29,1.21
			c-0.59,0.27-1.61,0.57-3.08,0.57c-2.85,0-4.56-1.88-4.56-4.67c0-2.8,1.65-5,4.35-5c3.03,0,3.83,2.66,3.83,4.37
			c0,0.34-0.04,0.61-0.06,0.79H478.81z M483.75,129.67c0.02-1.07-0.44-2.74-2.34-2.74c-1.7,0-2.45,1.57-2.58,2.74H483.75z"/>
		<path class="st5" d="M490.3,133.48c0.5,0.33,1.38,0.67,2.22,0.67c1.23,0,1.8-0.61,1.8-1.38c0-0.8-0.48-1.25-1.72-1.71
			c-1.67-0.59-2.45-1.51-2.45-2.62c0-1.49,1.21-2.72,3.2-2.72c0.94,0,1.76,0.27,2.28,0.58l-0.42,1.23c-0.36-0.23-1.03-0.54-1.9-0.54
			c-1,0-1.55,0.57-1.55,1.26c0,0.77,0.56,1.11,1.76,1.57c1.61,0.61,2.43,1.42,2.43,2.8c0,1.63-1.26,2.78-3.47,2.78
			c-1.01,0-1.95-0.25-2.6-0.63L490.3,133.48z"/>
	</g>
</g>
</svg>
