<?xml version="1.0" encoding="utf-8"?>
<!-- Generator: Adobe Illustrator 24.0.1, SVG Export Plug-In . SVG Version: 6.00 Build 0)  -->
<svg version="1.1" id="Layer_1" xmlns="http://www.w3.org/2000/svg" xmlns:xlink="http://www.w3.org/1999/xlink" x="0px" y="0px"
	 viewBox="0 0 212 219" style="enable-background:new 0 0 212 219;" xml:space="preserve">
<style type="text/css">
	.st0{fill:url(#SVGID_1_);}
	.st1{fill:none;}
	.st2{fill:url(#SVGID_2_);}
	.st3{fill:url(#SVGID_3_);}
	.st4{fill:url(#SVGID_4_);}
</style>
<g>
	<linearGradient id="SVGID_1_" gradientUnits="userSpaceOnUse" x1="127.1419" y1="71.1296" x2="37.9784" y2="160.2931">
		<stop  offset="2.273479e-03" style="stop-color:#A8DCE2"/>
		<stop  offset="0.3284" style="stop-color:#98D7DE"/>
		<stop  offset="0.9594" style="stop-color:#70C9D3"/>
		<stop  offset="0.9858" style="stop-color:#6EC8D2"/>
	</linearGradient>
	<path class="st0" d="M133.9,100.75L133.9,100.75l-11.75-31.83c-3.31-8.95-12.13-14.64-21.65-13.95h0
		c-7.92,0.57-14.87,5.48-18.07,12.75l-41.85,95.18c9.87,1.79,21.26,1.05,33.11-2.16l28.17-67.47l11.39,34.93
		c-5.68,7.14-10.29,12.8-10.29,12.8c3.77-1.93,7.82-4.92,11.76-8.31l0,0c8.94-7.17,16.46-15.17,22.33-23.46L133.9,100.75z"/>
	<path class="st1" d="M73.68,160.73c12.47-3.38,25.45-9.49,37.7-18.26c1.92-1.38,3.79-2.8,5.6-4.25l-15.12-44.95L73.68,160.73z"/>
	
		<linearGradient id="SVGID_2_" gradientUnits="userSpaceOnUse" x1="176.3151" y1="81.2449" x2="46.2226" y2="81.2449" gradientTransform="matrix(0.9992 -0.0398 0.0398 0.9992 -12.0858 44.2333)">
		<stop  offset="3.885582e-03" style="stop-color:#66C087"/>
		<stop  offset="0.0155" style="stop-color:#6BC17E"/>
		<stop  offset="0.0509" style="stop-color:#78C367"/>
		<stop  offset="0.0917" style="stop-color:#81C455"/>
		<stop  offset="0.1408" style="stop-color:#88C548"/>
		<stop  offset="0.2064" style="stop-color:#8CC641"/>
		<stop  offset="0.3575" style="stop-color:#8DC63F"/>
		<stop  offset="0.9994" style="stop-color:#8DC63F"/>
	</linearGradient>
	<path class="st2" d="M159.52,65.37c-2.7-3.76-6.11-6.85-10.09-9.27c8.92,15.84,4.44,38.14-10.12,58.67
		c-5.87,8.29-13.39,16.28-22.33,23.46c-1.81,1.45-3.68,2.87-5.6,4.25c-12.24,8.78-25.22,14.89-37.7,18.26
		c-11.85,3.21-23.24,3.95-33.11,2.16l0,0c-4.99,11.34,3.94,23.89,16.3,22.92c2.18-0.17,4.41-0.43,6.66-0.78
		c17.31-2.68,36.49-10.57,54.4-23.41c1.89-1.35,3.73-2.74,5.52-4.15c9.04-7.13,16.83-14.96,23.18-23.06
		C165.94,109.82,171.98,82.75,159.52,65.37z"/>
	
		<linearGradient id="SVGID_3_" gradientUnits="userSpaceOnUse" x1="90.6751" y1="83.4526" x2="50.6867" y2="123.4409" gradientTransform="matrix(0.9992 -0.0398 0.0398 0.9992 -12.0858 44.2333)">
		<stop  offset="1.281415e-03" style="stop-color:#A8DCE2;stop-opacity:0"/>
		<stop  offset="0.1745" style="stop-color:#93C7D0;stop-opacity:0.0694"/>
		<stop  offset="0.5327" style="stop-color:#5C92A2;stop-opacity:0.2129"/>
		<stop  offset="1" style="stop-color:#0D455E;stop-opacity:0.4"/>
	</linearGradient>
	<path class="st3" d="M87.02,128.8l-13.33,31.93c0,0-18.31,5.71-33.11,2.16l18.54-42.17L87.02,128.8z"/>
	<linearGradient id="SVGID_4_" gradientUnits="userSpaceOnUse" x1="125.9959" y1="151.4024" x2="160.021" y2="151.4024">
		<stop  offset="0" style="stop-color:#A8DCE1"/>
		<stop  offset="0.9993" style="stop-color:#60C1CE"/>
	</linearGradient>
	<path class="st4" d="M151.19,144.62c4.67-9.24,8.83-22.93,8.83-22.93c-6.17,12.88-17.53,25.3-18.99,26.87
		c-4.52,4.75-9.55,9.33-15.04,13.66l2.62,8.6c2.2,6.54,8.54,10.76,15.42,10.26h0c10.06-0.73,16.6-10.92,13.08-20.37L151.19,144.62z"
		/>
</g>
</svg>
